<?xml version="1.0" standalone="no"?>
<!DOCTYPE svg PUBLIC "-//W3C//DTD SVG 20010904//EN"
 "http://www.w3.org/TR/2001/REC-SVG-20010904/DTD/svg10.dtd">
<svg version="1.0" xmlns="http://www.w3.org/2000/svg"
 width="128.000000pt" height="128.000000pt" viewBox="0 0 128.000000 128.000000"
 preserveAspectRatio="xMidYMid meet">

<g transform="translate(0.000000,128.000000) scale(0.100000,-0.100000)"
fill="#FFFFFF" stroke="none">
<path d="M512 1250 c-33 -20 -71 -87 -72 -124 0 -11 9 -39 21 -62 37 -77 136
-105 206 -59 57 38 81 131 48 195 -34 66 -136 91 -203 50z"/>
<path d="M232 1153 c-75 -37 -149 -160 -176 -295 -18 -87 -21 -274 -6 -330 6
-20 26 -50 46 -67 l35 -31 204 0 204 0 3 -191 3 -191 28 -24 c38 -32 72 -31
108 6 l30 29 -3 246 -3 246 -25 19 c-22 17 -42 20 -162 20 l-138 0 0 92 0 91
-65 112 c-68 117 -76 139 -49 133 9 -2 51 -63 94 -136 42 -74 83 -138 91 -143
8 -5 80 -9 162 -9 134 0 149 2 167 20 28 28 25 64 -6 89 -23 18 -41 21 -139
21 l-113 0 -77 133 c-43 72 -87 142 -98 155 -24 26 -68 29 -115 5z"/>
<path d="M480 665 l0 -35 360 0 360 0 0 35 0 35 -360 0 -360 0 0 -35z"/>
</g>
</svg>
